<svg width="26" height="26" viewBox="0 0 26 26" fill="none" xmlns="http://www.w3.org/2000/svg">
<g clip-path="url(#clip0_526_2447)">
<path d="M17.875 8.125H22.1995C22.3614 8.12492 22.5197 8.17322 22.654 8.2637C22.7882 8.35418 22.8924 8.48272 22.9531 8.63281L24.375 12.1875" stroke="#424242" stroke-linecap="round" stroke-linejoin="round"/>
<path d="M1.625 14.625H17.875" stroke="#424242" stroke-linecap="round" stroke-linejoin="round"/>
<path d="M18.6875 21.9375C20.0337 21.9375 21.125 20.8462 21.125 19.5C21.125 18.1538 20.0337 17.0625 18.6875 17.0625C17.3413 17.0625 16.25 18.1538 16.25 19.5C16.25 20.8462 17.3413 21.9375 18.6875 21.9375Z" stroke="#424242" stroke-linecap="round" stroke-linejoin="round"/>
<path d="M7.3125 21.9375C8.65869 21.9375 9.75 20.8462 9.75 19.5C9.75 18.1538 8.65869 17.0625 7.3125 17.0625C5.96631 17.0625 4.875 18.1538 4.875 19.5C4.875 20.8462 5.96631 21.9375 7.3125 21.9375Z" stroke="#424242" stroke-linecap="round" stroke-linejoin="round"/>
<path d="M16.25 19.5H9.75" stroke="#424242" stroke-linecap="round" stroke-linejoin="round"/>
<path d="M17.875 12.1875H24.375V18.6875C24.375 18.903 24.2894 19.1097 24.137 19.262C23.9847 19.4144 23.778 19.5 23.5625 19.5H21.125" stroke="#424242" stroke-linecap="round" stroke-linejoin="round"/>
<path d="M4.875 19.5H2.4375C2.22201 19.5 2.01535 19.4144 1.86298 19.262C1.7106 19.1097 1.625 18.903 1.625 18.6875V7.3125C1.625 7.09701 1.7106 6.89035 1.86298 6.73798C2.01535 6.5856 2.22201 6.5 2.4375 6.5H17.875V17.2016" stroke="#424242" stroke-linecap="round" stroke-linejoin="round"/>
</g>
<defs>
<clipPath id="clip0_526_2447">
<rect width="26" height="26" fill="white"/>
</clipPath>
</defs>
</svg>
