<svg width="35" height="35" viewBox="0 0 35 35" fill="none" xmlns="http://www.w3.org/2000/svg">
<path d="M18.7035 33.2863L2.91699 17.4998V2.9165H17.5003L33.2503 18.7394L18.7035 33.2863ZM9.47949 11.6665C10.0871 11.6665 10.6034 11.4536 11.0282 11.0278C11.4541 10.6029 11.667 10.0866 11.667 9.479C11.667 8.87137 11.4541 8.35512 11.0282 7.93025C10.6034 7.50442 10.0871 7.2915 9.47949 7.2915C8.87185 7.2915 8.3556 7.50442 7.93074 7.93025C7.50491 8.35512 7.29199 8.87137 7.29199 9.479C7.29199 10.0866 7.50491 10.6029 7.93074 11.0278C8.3556 11.4536 8.87185 11.6665 9.47949 11.6665Z" fill="#232CC7"/>
</svg>
