<svg width="1591" height="1687" xmlns="http://www.w3.org/2000/svg" xmlns:xlink="http://www.w3.org/1999/xlink" xml:space="preserve" overflow="hidden"><g transform="translate(-1159 -325)"><g><path d="M2003 1744.5C1682.4 1744.5 1422.5 1484.6 1422.5 1164 1422.5 843.399 1682.4 583.5 2003 583.5L2003 1164Z" stroke="#FFFFFF" stroke-width="4.58333" stroke-linecap="butt" stroke-linejoin="miter" stroke-miterlimit="8" stroke-opacity="1" fill="#FE4128" fill-rule="evenodd" fill-opacity="1"/><path d="M2002.48 1678.5C1794.28 1678.5 1625.5 1509.49 1625.5 1301 1625.5 1092.51 1794.28 923.5 2002.48 923.5L2002.48 1301Z" stroke="#FFFFFF" stroke-width="4.58333" stroke-linecap="butt" stroke-linejoin="miter" stroke-miterlimit="8" stroke-opacity="1" fill="#FD9340" fill-rule="evenodd" fill-opacity="1"/><path d="M2035 1603C1938.9 1603 1861 1524.87 1861 1428.5 1861 1332.13 1938.9 1254 2035 1254L2035 1428.5Z" fill="#43444E" fill-rule="evenodd" fill-opacity="1"/><path d="M2072 583.5C2392.6 583.5 2652.5 843.398 2652.5 1164 2652.5 1484.6 2392.6 1744.5 2072 1744.5L2072 1164Z" stroke="#FFFFFF" stroke-width="4.58333" stroke-linecap="butt" stroke-linejoin="miter" stroke-miterlimit="8" stroke-opacity="1" fill="#75BD3B" fill-rule="evenodd" fill-opacity="1"/><path d="M2072.52 923.5C2280.72 923.5 2449.5 1092.51 2449.5 1301 2449.5 1509.49 2280.72 1678.5 2072.52 1678.5L2072.52 1301Z" stroke="#FFFFFF" stroke-width="4.58333" stroke-linecap="butt" stroke-linejoin="miter" stroke-miterlimit="8" stroke-opacity="1" fill="#C6E171" fill-rule="evenodd" fill-opacity="1"/><path d="M2035 1254C2131.1 1254 2209 1332.13 2209 1428.5 2209 1524.87 2131.1 1603 2035 1603L2035 1428.5Z" fill="#43444E" fill-rule="evenodd" fill-opacity="1"/><text fill="#FFFFFF" fill-opacity="1" font-family="Arial,Arial_MSFontService,sans-serif" font-style="normal" font-variant="normal" font-weight="400" font-stretch="normal" font-size="50" text-anchor="start" direction="ltr" writing-mode="lr-tb" unicode-bidi="normal" text-decoration="none" transform="matrix(1 0 0 1 1911.66 1394)">Cadena de </text><text fill="#FFFFFF" fill-opacity="1" font-family="Arial,Arial_MSFontService,sans-serif" font-style="normal" font-variant="normal" font-weight="400" font-stretch="normal" font-size="50" text-anchor="start" direction="ltr" writing-mode="lr-tb" unicode-bidi="normal" text-decoration="none" transform="matrix(1 0 0 1 1939.73 1455)">valor del </text><text fill="#FFFFFF" fill-opacity="1" font-family="Arial,Arial_MSFontService,sans-serif" font-style="normal" font-variant="normal" font-weight="400" font-stretch="normal" font-size="50" text-anchor="start" direction="ltr" writing-mode="lr-tb" unicode-bidi="normal" text-decoration="none" transform="matrix(1 0 0 1 1949.47 1515)">servicio</text><text fill="#43444E" fill-opacity="1" font-family="Arial,Arial_MSFontService,sans-serif" font-style="normal" font-variant="normal" font-weight="400" font-stretch="normal" font-size="64" text-anchor="start" direction="ltr" writing-mode="lr-tb" unicode-bidi="normal" text-decoration="none" transform="matrix(1 0 0 1 1700.61 765)">Principios </text><text fill="#43444E" fill-opacity="1" font-family="Arial,Arial_MSFontService,sans-serif" font-style="normal" font-variant="normal" font-weight="400" font-stretch="normal" font-size="64" text-anchor="start" direction="ltr" writing-mode="lr-tb" unicode-bidi="normal" text-decoration="none" transform="matrix(1 0 0 1 1777.38 842)">guía</text><text fill="#43444E" fill-opacity="1" font-family="Arial,Arial_MSFontService,sans-serif" font-style="normal" font-variant="normal" font-weight="400" font-stretch="normal" font-size="50" text-anchor="start" direction="ltr" writing-mode="lr-tb" unicode-bidi="normal" text-decoration="none" transform="matrix(1 0 0 1 1646.78 1244)">Gobernabilidad</text><text fill="#43444E" fill-opacity="1" font-family="Arial,Arial_MSFontService,sans-serif" font-style="normal" font-variant="normal" font-weight="400" font-stretch="normal" font-size="64" text-anchor="start" direction="ltr" writing-mode="lr-tb" unicode-bidi="normal" text-decoration="none" transform="matrix(1 0 0 1 2316.63 890)">Mejora </text><text fill="#43444E" fill-opacity="1" font-family="Arial,Arial_MSFontService,sans-serif" font-style="normal" font-variant="normal" font-weight="400" font-stretch="normal" font-size="64" text-anchor="start" direction="ltr" writing-mode="lr-tb" unicode-bidi="normal" text-decoration="none" transform="matrix(1 0 0 1 2293.42 967)">continua</text><text fill="#43444E" fill-opacity="1" font-family="Arial,Arial_MSFontService,sans-serif" font-style="normal" font-variant="normal" font-weight="400" font-stretch="normal" font-size="50" text-anchor="start" direction="ltr" writing-mode="lr-tb" unicode-bidi="normal" text-decoration="none" transform="matrix(1 0 0 1 2214.31 1348)">Prácticas</text><text fill="#43444E" fill-opacity="1" font-family="Arial,Arial_MSFontService,sans-serif" font-style="normal" font-variant="normal" font-weight="400" font-stretch="normal" font-size="83" text-anchor="start" direction="ltr" writing-mode="lr-tb" unicode-bidi="normal" text-decoration="none" transform="matrix(1 0 0 1 1825.75 432)">Oportunidad</text><text fill="#43444E" fill-opacity="1" font-family="Arial,Arial_MSFontService,sans-serif" font-style="normal" font-variant="normal" font-weight="400" font-stretch="normal" font-size="83" text-anchor="start" direction="ltr" writing-mode="lr-tb" unicode-bidi="normal" text-decoration="none" transform="matrix(1 0 0 1 1947.45 1943)">Valor</text><path d="M2044.15 477.917 2044.15 547.042 2041.85 547.042 2041.85 477.917ZM2029.25 482.5 2043 455 2056.75 482.5ZM2056.75 542.459 2043 569.959 2029.25 542.459Z" fill="#42424C" fill-rule="nonzero" fill-opacity="1"/><path d="M2036.15 1766.92 2036.15 1839.52 2033.85 1839.52 2033.85 1766.92ZM2021.25 1771.5 2035 1744 2048.75 1771.5ZM2048.75 1834.94 2035 1862.44 2021.25 1834.94Z" fill="#42424C" fill-rule="nonzero" fill-opacity="1"/><text fill="#43444E" fill-opacity="1" font-family="Arial,Arial_MSFontService,sans-serif" font-style="normal" font-variant="normal" font-weight="400" font-stretch="normal" font-size="83" text-anchor="start" direction="ltr" writing-mode="lr-tb" unicode-bidi="normal" text-decoration="none" transform="matrix(1 0 0 1 1213.68 432)">Entradas</text><text fill="#43444E" fill-opacity="1" font-family="Arial,Arial_MSFontService,sans-serif" font-style="normal" font-variant="normal" font-weight="400" font-stretch="normal" font-size="83" text-anchor="start" direction="ltr" writing-mode="lr-tb" unicode-bidi="normal" text-decoration="none" transform="matrix(1 0 0 1 2425.26 1943)">Salidas</text><path d="M1581.5 400.208 1770.79 400.209 1770.79 404.792 1581.5 404.792ZM1766.21 388.75 1793.71 402.5 1766.21 416.25Z" fill="#42424C" fill-rule="nonzero" fill-opacity="1"/><path d="M2169.5 1911.21 2369.55 1911.21 2369.55 1915.79 2169.5 1915.79ZM2364.97 1899.75 2392.47 1913.5 2364.97 1927.25Z" fill="#42424C" fill-rule="nonzero" fill-opacity="1"/></g></g></svg>