<svg width="21" height="20" viewBox="0 0 21 20" fill="none" xmlns="http://www.w3.org/2000/svg">
<circle cx="10.5" cy="10" r="10" fill="#818181"/>
<path d="M7.10332 4.8225C7.29598 4.6525 7.50565 4.491 7.73232 4.338C7.96465 4.185 8.21398 4.05183 8.48032 3.9385C8.74665 3.82517 9.03565 3.73733 9.34732 3.675C9.65898 3.607 9.99615 3.573 10.3588 3.573C10.8518 3.573 11.2995 3.641 11.7018 3.777C12.1098 3.913 12.4583 4.1085 12.7473 4.3635C13.0363 4.61283 13.2602 4.916 13.4188 5.273C13.5775 5.63 13.6568 6.0295 13.6568 6.4715C13.6568 6.90217 13.5945 7.27617 13.4698 7.5935C13.3452 7.90517 13.1893 8.17717 13.0023 8.4095C12.8153 8.64183 12.6085 8.843 12.3818 9.013C12.1608 9.183 11.9512 9.3445 11.7528 9.4975C11.5545 9.64483 11.3817 9.79217 11.2343 9.9395C11.0927 10.0812 11.0077 10.2427 10.9793 10.424L10.7838 11.665H9.34732L9.20282 10.2795C9.16882 10.0132 9.20565 9.78083 9.31332 9.5825C9.42665 9.3785 9.57398 9.19433 9.75532 9.03C9.94232 8.86 10.1492 8.6985 10.3758 8.5455C10.6025 8.38683 10.815 8.21683 11.0133 8.0355C11.2117 7.8485 11.376 7.64167 11.5063 7.415C11.6423 7.18267 11.7103 6.90783 11.7103 6.5905C11.7103 6.3865 11.6707 6.20517 11.5913 6.0465C11.5177 5.88217 11.4128 5.74333 11.2768 5.63C11.1408 5.511 10.9765 5.42033 10.7838 5.358C10.5968 5.29567 10.3928 5.2645 10.1718 5.2645C9.84882 5.2645 9.57398 5.30133 9.34732 5.375C9.12632 5.443 8.93648 5.52233 8.77782 5.613C8.62482 5.698 8.49448 5.77733 8.38682 5.851C8.27915 5.919 8.18282 5.953 8.09782 5.953C7.89382 5.953 7.74648 5.868 7.65582 5.698L7.10332 4.8225ZM8.70982 14.844C8.70982 14.6683 8.74098 14.5012 8.80332 14.3425C8.87132 14.1838 8.96198 14.0478 9.07532 13.9345C9.18865 13.8212 9.32465 13.7305 9.48332 13.6625C9.64198 13.5945 9.81198 13.5605 9.99332 13.5605C10.1747 13.5605 10.3418 13.5945 10.4948 13.6625C10.6535 13.7305 10.7895 13.8212 10.9028 13.9345C11.0218 14.0478 11.1153 14.1838 11.1833 14.3425C11.2513 14.5012 11.2853 14.6683 11.2853 14.844C11.2853 15.0253 11.2513 15.1953 11.1833 15.354C11.1153 15.507 11.0218 15.6402 10.9028 15.7535C10.7895 15.8668 10.6535 15.9547 10.4948 16.017C10.3418 16.085 10.1747 16.119 9.99332 16.119C9.81198 16.119 9.64198 16.085 9.48332 16.017C9.32465 15.9547 9.18865 15.8668 9.07532 15.7535C8.96198 15.6402 8.87132 15.507 8.80332 15.354C8.74098 15.1953 8.70982 15.0253 8.70982 14.844Z" fill="white"/>
</svg>
