<svg width="26" height="26" viewBox="0 0 26 26" fill="none" xmlns="http://www.w3.org/2000/svg">
<path d="M13.1084 20.0958L13.0001 20.2042L12.8809 20.0958C7.73508 15.4267 4.33341 12.3392 4.33341 9.20833C4.33341 7.04167 5.95841 5.41667 8.12508 5.41667C9.79342 5.41667 11.4184 6.5 11.9926 7.97333H14.0076C14.5817 6.5 16.2067 5.41667 17.8751 5.41667C20.0417 5.41667 21.6667 7.04167 21.6667 9.20833C21.6667 12.3392 18.2651 15.4267 13.1084 20.0958ZM17.8751 3.25C15.9901 3.25 14.1809 4.1275 13.0001 5.50333C11.8192 4.1275 10.0101 3.25 8.12508 3.25C4.78841 3.25 2.16675 5.86083 2.16675 9.20833C2.16675 13.2925 5.85008 16.64 11.4292 21.6992L13.0001 23.1292L14.5709 21.6992C20.1501 16.64 23.8334 13.2925 23.8334 9.20833C23.8334 5.86083 21.2117 3.25 17.8751 3.25Z" fill="#171618"/>
</svg>
