<svg width="23" height="22" viewBox="0 0 23 22" fill="none" xmlns="http://www.w3.org/2000/svg">
<path fill-rule="evenodd" clip-rule="evenodd" d="M9.95325 4.14258C8.13383 2.32316 5.18398 2.32316 3.36456 4.14258C1.54515 5.96199 1.54515 8.91185 3.36456 10.7313L4.14427 11.511C4.15701 11.5237 4.16938 11.5368 4.18136 11.5501L11.4401 18.8088L18.6985 11.5504C18.7105 11.537 18.723 11.5239 18.7359 11.511L19.5156 10.7313C21.335 8.91185 21.335 5.96199 19.5156 4.14258C17.6961 2.32316 14.7463 2.32316 12.9269 4.14258L12.1472 4.92228C11.7566 5.31281 11.1235 5.31281 10.733 4.92228L9.95325 4.14258ZM20.1885 12.8868C20.1765 12.9002 20.164 12.9133 20.1511 12.9262L12.1482 20.9291C11.9606 21.1167 11.7062 21.2221 11.4409 21.222C11.4406 21.222 11.4411 21.222 11.4409 21.222C11.4406 21.222 11.4395 21.222 11.4393 21.222C11.174 21.2221 10.9195 21.1167 10.7319 20.9291L2.72903 12.9262C2.71613 12.9133 2.70366 12.9002 2.69161 12.8867L1.95035 12.1455C-0.650114 9.54502 -0.650118 5.32883 1.95035 2.72836C4.55081 0.127899 8.767 0.127899 11.3675 2.72836L11.4401 2.80096L11.5127 2.72836C14.1131 0.127899 18.3293 0.127899 20.9298 2.72836C23.5302 5.32883 23.5302 9.54502 20.9298 12.1455L20.1885 12.8868Z" fill="#2D3648"/>
</svg>
