<svg width="22" height="25" viewBox="0 0 22 25" fill="none" xmlns="http://www.w3.org/2000/svg">
<path d="M15.5235 0.900452L15.5426 0.908791C15.7398 0.994825 15.8811 1.11578 15.9738 1.27456C16.0655 1.43154 16.1048 1.61733 16.1132 1.8257C16.2058 4.09846 17.9563 5.84422 20.2206 5.94612L20.2207 5.94612C20.5263 5.96001 20.7628 6.02748 20.92 6.19044C21.0774 6.35362 21.1349 6.59144 21.1352 6.89548V6.89556V6.90201V6.90846V6.91491V6.92136V6.9278V6.93425V6.9407V6.94715V6.9536V6.96005V6.9665V6.97295V6.9794V6.98585V6.9923V6.99875V7.0052V7.01164V7.01809V7.02454V7.03099V7.03744V7.04389V7.05034V7.05679V7.06324V7.06969V7.07614V7.08259V7.08903V7.09548V7.10193V7.10838V7.11483V7.12128V7.12773V7.13418V7.14063V7.14708V7.15353V7.15997V7.16642V7.17287V7.17932V7.18577V7.19222V7.19867V7.20512V7.21157V7.21802V7.22447V7.23091V7.23736V7.24381V7.25026V7.25671V7.26316V7.26961V7.27606V7.28251V7.28896V7.29541V7.30185V7.3083V7.31475V7.3212V7.32765V7.3341V7.34055V7.347V7.35345V7.3599V7.36634V7.37279V7.37924V7.38569V7.39214V7.39859V7.40504V7.41149V7.41794V7.42439V7.43083V7.43728V7.44373V7.45018V7.45663V7.46308V7.46953V7.47598V7.48243V7.48887V7.49532V7.50177V7.50822V7.51467V7.52112V7.52757V7.53402V7.54047V7.54692V7.55336V7.55981V7.56626V7.57271V7.57916V7.58561V7.59206V7.59851V7.60495V7.6114V7.61785V7.6243V7.63075V7.6372V7.64365V7.6501V7.65655V7.66299V7.66944V7.67589V7.68234V7.68879V7.69524V7.70169V7.70814V7.71459V7.72103V7.72748V7.73393V7.74038V7.74683V7.75328V7.75973V7.76618V7.77262V7.77907V7.78552V7.79197V7.79842V7.80487V7.81132V7.81777V7.82421V7.83066V7.83711V7.84356V7.85001V7.85646V7.86291V7.86936V7.8758V7.88225V7.8887V7.89515V7.9016V7.90805V7.9145V7.92095V7.92739V7.93384V7.94029V7.94674V7.95319V7.95964V7.96609V7.97253V7.97898V7.98543V7.99188V7.99833V8.00478V8.01123V8.01768V8.02412V8.03057V8.03702V8.04347V8.04992V8.05637V8.06282V8.06926V8.07571V8.08216V8.08861V8.09506V8.10151V8.10796V8.1144V8.12085V8.1273V8.13375V8.1402V8.14665V8.1531V8.15954V8.16599V8.17244V8.17889V8.18534V8.19179V8.19824V8.20468V8.21113V8.21758V8.22403V8.23048V8.23693V8.24338V8.24982V8.25627V8.26272V8.26917V8.27562V8.28207V8.28852V8.29496V8.30141V8.30786V8.31431V8.32076V8.32721V8.33366V8.3401V8.34655V8.353V8.35945V8.3659V8.37235V8.37879V8.38524V8.39169V8.39814V8.40459V8.41104V8.41749V8.42393V8.43038V8.43683V8.44328V8.44973V8.45618V8.46262V8.46907V8.47552V8.48197V8.48842V8.49487V8.50131V8.50776V8.51421V8.52066V8.52711V8.53356V8.54001V8.54645V8.5529V8.55935V8.5658V8.57225V8.5787V8.58514V8.59159V8.59804V8.60449V8.61094V8.61739V8.62383V8.63028V8.63673V8.64318V8.64963V8.65608V8.66252V8.66897V8.67542V8.68187V8.68832V8.69477V8.70121V8.70766V8.71411V8.72056V8.72701V8.73345V8.7399V8.74635V8.7528V8.75925V8.7657V8.77214V8.77859V8.78504V8.79149V8.79794V8.80439V8.81083V8.81728V8.82373V8.83018V8.83663V8.84307V8.84952V8.85597V8.86242V8.86887V8.87532V8.88176V8.88821V8.89466V8.90111V8.90756V8.914V8.92045V8.9269V8.93335V8.9398V8.94625V8.95269V8.95914V8.96559V8.97204V8.97849V8.98493V8.99138V8.99783V9.00428V9.01073V9.01718V9.02362V9.03007V9.03652V9.04297V9.04942V9.05586V9.06231V9.06876V9.07521V9.08166V9.0881V9.09455V9.101V9.10745V9.1139V9.12035V9.12679V9.13324V9.13969V9.14614V9.15259V9.15903V9.16548V9.17193V9.17838V9.18482V9.19127V9.19772V9.20417V9.21062V9.21707V9.22351V9.22996V9.23641V9.24286V9.24931V9.25575V9.2622V9.26865V9.2751V9.28155V9.28799V9.29444V9.30089V9.30734V9.31379V9.32023V9.32668V9.33313V9.33958V9.34603V9.35247V9.35892V9.36537V9.37182V9.37826V9.38471V9.39116V9.39761V9.40406V9.4105V9.41695V9.4234V9.42985V9.4363V9.44274V9.44919V9.45564V9.46209V9.46854V9.47498V9.48143V9.48788V9.49433V9.50077V9.50722V9.51367V9.52012V9.52657V9.53301V9.53946V9.54591V9.55236V9.55881V9.56525V9.5717V9.57815V9.5846V9.59104V9.59749V9.60394V9.61039V9.61684V9.62328V9.62973V9.63618V9.64263V9.64907V9.65552V9.66197V9.66842V9.67487V9.68131V9.68776V9.69421V9.70066V9.7071V9.71355V9.72V9.72645V9.7329V9.73934V9.74579V9.75224V9.75869V9.76513V9.77158V9.77803V9.78448V9.79093V9.79737V9.80382V9.81027V9.81672V9.82316V9.82961V9.83606V9.84251V9.84895V9.8554V9.86185V9.8683V9.87475V9.88119V9.88764V9.89409V9.90054V9.90698V9.91343V9.91988V9.92633V9.93277V9.93922V9.94567V9.95212V9.95856V9.96501V9.97146V9.97791V9.98435V9.9908V9.99725V10.0037V10.0101V10.0166V10.023V10.0295V10.0359V10.0424V10.0488V10.0553V10.0617V10.0682V10.0746V10.0811V10.0875V10.094V10.1004V10.1069V10.1133V10.1198V10.1262V10.1326V10.1391V10.1455V10.152V10.1584V10.1649V10.1713V10.1778V10.1842V10.1907V10.1971C21.1352 10.4918 21.0661 10.7293 20.9032 10.8901C20.7401 11.0511 20.5023 11.1164 20.2075 11.1098M15.5235 0.900452L20.2094 11.0098M15.5235 0.900452L15.5026 0.90045L11.5728 0.9L11.5508 0.899997L11.5309 0.909183C11.3258 1.00374 11.1832 1.1346 11.0938 1.30332C11.0055 1.46987 10.9737 1.66477 10.9737 1.88054V1.88065C10.979 6.70856 10.979 11.5366 10.9737 16.3648L10.9737 16.3653C10.9746 16.618 10.9446 16.8699 10.8846 17.1153C10.575 18.3412 9.33948 19.1256 8.08471 18.9062C6.85903 18.6914 5.95685 17.5231 6.06697 16.2966C6.18448 14.9879 7.16475 14.0516 8.47785 13.9957C8.70851 13.9864 8.91006 13.9146 9.05561 13.7798C9.20246 13.6439 9.28314 13.4523 9.28539 13.2229M15.5235 0.900452L8.47361 13.8958C8.89943 13.8788 9.18137 13.6326 9.1854 13.2219M20.2075 11.1098C20.2074 11.1098 20.2073 11.1098 20.2072 11.1098L20.2094 11.0098M20.2075 11.1098C20.2076 11.1098 20.2078 11.1098 20.2079 11.1098L20.2094 11.0098M20.2075 11.1098C18.8114 11.088 17.4379 10.7519 16.1879 10.1262L16.1878 10.1261C16.1609 10.1126 16.134 10.0999 16.1039 10.0862M20.2094 11.0098C18.8282 10.9883 17.4693 10.6558 16.2327 10.0367C16.1929 10.0167 16.1523 9.99824 16.1039 9.97641V10.0862M16.1039 10.0862C16.0863 10.0781 16.0675 10.0697 16.0471 10.0605C16.0335 10.0544 16.0192 10.0479 16.0039 10.041L5.86728 9.42755C6.70272 9.10247 7.59166 8.93877 8.48746 8.94505C8.88736 8.94505 9.18137 9.20382 9.1854 9.60636C9.19731 10.8116 9.19731 12.0168 9.1854 13.2219M16.1039 10.0862V10.2178C16.1039 10.8244 16.1053 11.4312 16.1067 12.0381C16.1102 13.595 16.1137 15.1529 16.0941 16.7099L16.0941 16.7099C16.0488 20.1263 13.496 23.2162 10.164 23.9182L10.164 23.9182C9.90703 23.9722 9.64599 24.0122 9.38836 24.0516C9.28723 24.0671 9.18663 24.0826 9.08701 24.0987L9.07906 24.1H9.07101H7.95127H7.94235L7.93357 24.0984C7.81153 24.0765 7.6884 24.0558 7.56477 24.035C7.28603 23.9881 7.00472 23.9408 6.72759 23.8778L6.72748 23.8778C3.87258 23.2253 1.5602 20.7649 1.05521 17.8515C0.416701 14.1707 2.37065 10.6812 5.83101 9.33436L5.83102 9.33436C6.67813 9.00473 7.57949 8.83873 8.48783 8.84505C8.70922 8.84513 8.90798 8.91703 9.05289 9.05144C9.19855 9.18654 9.28313 9.37876 9.28539 9.60537C9.29731 10.8112 9.29731 12.0171 9.28539 13.2229M9.28539 13.2229L9.1854 13.2219M9.28539 13.2229C9.28539 13.2229 9.28539 13.2229 9.28539 13.2229L9.1854 13.2219M4.51394 16.4688L4.51394 16.4687C4.51394 14.6076 5.79401 12.9874 7.62446 12.5554L7.62453 12.5554C7.7037 12.5368 7.72598 12.5168 7.73463 12.5045C7.74491 12.49 7.75428 12.4614 7.75342 12.3844C7.74926 12.0314 7.74994 11.6768 7.75062 11.3229C7.7511 11.0693 7.75159 10.8161 7.75029 10.5642L7.75028 10.5637C7.75029 10.5239 7.74816 10.486 7.74545 10.4416C7.72755 10.4441 7.71002 10.4465 7.6928 10.4489C7.60123 10.4615 7.5185 10.4729 7.43508 10.4867C4.29627 11.0095 2.03564 14.1551 2.52557 17.3232C3.03362 20.6075 5.86635 22.8236 9.15642 22.5158C12.1043 22.2402 14.5176 19.6558 14.5532 16.6841C14.5743 14.9024 14.5707 13.121 14.567 11.3389C14.5653 10.5236 14.5636 9.70813 14.5643 8.89244C14.5643 8.89183 14.5643 8.89122 14.5643 8.89061L14.6643 8.89069C14.6608 8.79353 14.666 8.69624 14.68 8.60003L4.51394 16.4688ZM4.51394 16.4688C4.51578 18.3467 5.8045 19.9645 7.64066 20.3955L7.66351 20.2981M4.51394 16.4688L7.66351 20.2981M7.66351 20.2981L7.64067 20.3955C10.0759 20.9668 12.483 19.0849 12.5141 16.5629C12.5295 15.3164 12.526 14.0692 12.5225 12.8228C12.521 12.2869 12.5195 11.7511 12.5195 11.2156V11.1988V11.1821V11.1653V11.1485V11.1318V11.115V11.0983V11.0815V11.0647V11.048V11.0312V11.0145V10.9977V10.9809V10.9642V10.9474V10.9306V10.9139V10.8971V10.8804V10.8636V10.8468V10.8301V10.8133V10.7966V10.7798V10.763V10.7463V10.7295V10.7128V10.696V10.6792V10.6625V10.6457V10.629V10.6122V10.5954V10.5787V10.5619V10.5451V10.5284V10.5116V10.4949V10.4781V10.4613V10.4446V10.4278V10.4111V10.3943V10.3775V10.3608V10.344V10.3273V10.3105V10.2937V10.277V10.2602V10.2435V10.2267V10.2099V10.1932V10.1764V10.1597V10.1429V10.1261V10.1094V10.0926V10.0758V10.0591V10.0423V10.0256V10.0088V9.99205V9.97529V9.95853V9.94177V9.925V9.90824V9.89148V9.87472V9.85796V9.8412V9.82444V9.80768V9.79092V9.77416V9.7574V9.74064V9.72388V9.70712V9.69036V9.6736V9.65684V9.64008V9.62332V9.60656V9.5898V9.57304V9.55628V9.53952V9.52275V9.50599V9.48923V9.47247V9.45571V9.43895V9.42219V9.40543V9.38867V9.37191V9.35515V9.33839V9.32163V9.30487V9.28811V9.27135V9.25459V9.23783V9.22107V9.20431V9.18755V9.17079V9.15403V9.13727V9.12051V9.10375V9.08699V9.07023V9.05347V9.03671V9.01995V9.00319V8.98643V8.96967V8.95291V8.93615V8.91939V8.90263V8.88587V8.86911V8.85235V8.83559V8.81883V8.80207V8.78531V8.76855V8.75179V8.73503V8.71827V8.70151V8.68475V8.66799V8.65123V8.63447V8.61771V8.60095V8.58419V8.56743V8.55067V8.53391V8.51715V8.50039V8.48363V8.46687V8.45011V8.43335V8.41659V8.39983V8.38307V8.36631V8.34955V8.33279V8.31603V8.29927V8.28251V8.26575V8.24899V8.23223V8.21547V8.19871V8.18195V8.16519V8.14843V8.13167V8.11491V8.09815V8.08139V8.06463V8.04787V8.03111V8.01435V7.99759V7.98083V7.96407V7.94731V7.93055V7.91379V7.89703V7.88027V7.86351V7.84676V7.83V7.81324V7.79648V7.77972V7.76296V7.7462V7.72944V7.71268V7.69592V7.67916V7.6624V7.64564V7.62888V7.61212V7.59536V7.5786V7.56184V7.54508V7.52832V7.51156V7.4948V7.47804V7.46129V7.44453V7.42777V7.41101V7.39425V7.37749V7.36073V7.34397V7.32721V7.31045V7.29369V7.27693V7.26017V7.24341V7.22665V7.20989V7.19313V7.17637V7.15962V7.14286V7.1261V7.10934V7.09258V7.07582V7.05906V7.0423V7.02554V7.00878V6.99202V6.97526V6.9585V6.94174V6.92498V6.90823V6.89147V6.87471V6.85795V6.84119V6.82443V6.80767V6.79091V6.77415V6.75739V6.74063V6.72387V6.70712V6.69036V6.6736V6.65684V6.64008V6.62332V6.60656V6.5898V6.57304V6.55628V6.53952V6.52276V6.50601V6.48925V6.47249V6.45573V6.43897V6.42221V6.40545V6.38869V6.37193V6.35517V6.33841V6.32166V6.3049V6.28814V6.27138V6.25462V6.23786V6.2211V6.20434V6.18758V6.17082V6.15407V6.13731V6.12055V6.10379V6.08703V6.07027V6.05351V6.03675V6.01999V6.00324V5.98648V5.96972V5.95296V5.9362V5.91944V5.90268V5.88592V5.86916V5.85241V5.83565V5.81889V5.80213V5.78537V5.76861V5.75185V5.73509V5.71834V5.70158V5.68482V5.66806V5.6513V5.63454V5.61778V5.60102V5.58426V5.56751V5.55075V5.53399V5.51723V5.50047V5.48371V5.46695V5.4502V5.43344V5.41668V5.39992V5.38316V5.3664V5.34964V5.33288V5.31613V5.29937V5.28261V5.26585V5.24909V5.23233V5.21557V5.19882V5.18206V5.1653V5.14854V5.13178V5.11502V5.09826V5.08151V5.06475V5.04799V5.03123V5.01447V4.99771V4.98096V4.9642V4.94744V4.93068V4.91392V4.89716V4.8804V4.86365V4.84689V4.83013V4.81337V4.79661V4.77985V4.7631V4.74634V4.72958V4.71282V4.69606V4.6793V4.66255V4.64579V4.62903V4.61227V4.59551V4.57875V4.562V4.54524V4.52848V4.51172V4.49496V4.4782V4.46145V4.44469V4.42793V4.41117V4.39441V4.37765V4.3609V4.34414V4.32738V4.31062V4.29386V4.27711V4.26035V4.24359V4.22683V4.21007V4.19331V4.17656V4.1598V4.14304V4.12628V4.10952V4.09277V4.07601V4.05925V4.04249V4.02573V4.00898V3.99222V3.97546V3.9587V3.94194V3.92518V3.90843V3.89167V3.87491V3.85815V3.84139V3.82464V3.80788V3.79112V3.77436V3.7576V3.74085V3.72409V3.70733V3.69057V3.67381V3.65706V3.6403V3.62354V3.60678V3.59003V3.57327V3.55651V3.53975V3.52299V3.50624V3.48948V3.47272V3.45596V3.4392V3.42245V3.40569V3.38893V3.37217V3.35542V3.33866V3.3219V3.30514V3.28838V3.27163V3.25487V3.23811V3.22135V3.2046V3.18784V3.17108V3.15432V3.13756V3.12081V3.10405V3.08729V3.07053V3.05378V3.03702V3.02026V3.0035V2.98674V2.96999V2.95323V2.93647V2.91971V2.90296V2.8862V2.86944V2.85268V2.83593V2.81917V2.80241V2.78565V2.7689V2.75214V2.73538V2.71862V2.70187V2.68511V2.66835V2.65159V2.63484V2.4563H14.6085C14.621 2.51631 14.6331 2.57707 14.6452 2.63819C14.6838 2.83337 14.7231 3.03214 14.7815 3.22137L14.7815 3.22142C15.1434 4.3934 15.7185 5.33344 16.5069 6.03798C17.2952 6.74239 18.2917 7.20689 19.4899 7.43574C19.4963 7.43707 19.5076 7.44079 19.5225 7.44808C19.5371 7.45524 19.5523 7.46438 19.5656 7.47411C19.5756 7.48148 19.5832 7.48812 19.5883 7.49326C19.5971 8.06671 19.5967 8.64155 19.5962 9.24574C19.5962 9.342 19.5961 9.439 19.596 9.53685C19.4958 9.51891 19.3973 9.50197 19.3002 9.48526C19.0084 9.43504 18.7295 9.38703 18.4527 9.3209C17.5381 9.09697 16.673 8.70392 15.9014 8.16179L7.66351 20.2981ZM19.588 7.4724L19.588 7.47397L19.588 7.4724Z" fill="black" stroke="black" stroke-width="0.2"/>
</svg>
