<svg width="24" height="24" viewBox="0 0 24 24" fill="none" xmlns="http://www.w3.org/2000/svg">
<path d="M19.0937 6.00642L19.0938 6.00637C18.9271 5.92022 18.7648 5.82577 18.6075 5.72339L18.6046 5.72148C18.1546 5.42395 17.742 5.07338 17.3756 4.67731L17.3661 4.66698L17.3662 4.66685C16.4449 3.61262 16.0964 2.53657 15.9677 1.77611L15.8786 1.25H13.0499V15.6928V15.698C13.0499 15.8924 13.0499 16.0967 13.0414 16.3005C13.041 16.3228 13.04 16.3419 13.0391 16.3553C13.0384 16.3665 13.038 16.3718 13.0377 16.3759C13.0375 16.3882 13.0369 16.4071 13.0347 16.4296L13.0339 16.4404C12.987 17.0582 12.7889 17.6551 12.4572 18.1784C12.1255 18.7017 11.6703 19.1354 11.1317 19.4415C11.1316 19.4415 11.1315 19.4416 11.1314 19.4416L10.8844 19.0069C10.3972 19.2841 9.8461 19.4295 9.28552 19.4288L19.0937 6.00642ZM19.0937 6.00642L19.1002 6.00966C19.8748 6.39583 20.6565 6.59625 21.2519 6.64867M19.0937 6.00642L21.2519 6.64867M21.2519 6.64867V9.45439C21.1734 9.44765 21.0884 9.43976 20.9986 9.43059C20.5429 9.38408 19.9828 9.30644 19.5174 9.18299C18.8511 9.00471 18.3045 8.77866 17.9261 8.59804C17.7371 8.50785 17.5909 8.42938 17.4936 8.37449C17.445 8.34706 17.4086 8.32556 17.3853 8.31149L17.3602 8.29615L17.357 8.29412L17.3543 8.29235L17.3343 8.27917L17.2628 8.23192L17.0427 8.0866C16.8895 7.98564 16.707 7.86549 16.6715 7.84422L15.9143 7.38988V8.27297V16.2005C15.9143 16.594 15.8043 17.6328 15.4813 18.4831C15.1955 19.2155 14.7871 19.8939 14.2736 20.4892L14.2682 20.4955L14.2638 20.501L14.2636 20.5012L14.2634 20.5015L14.2632 20.5017L14.2632 20.5017L14.2631 20.5019L14.2584 20.5074C14.2536 20.5132 14.2456 20.5228 14.2343 20.5357C14.2118 20.5617 14.1766 20.6014 14.1291 20.652C14.034 20.7534 13.8902 20.8982 13.701 21.065C13.3215 21.3995 12.7658 21.8168 12.0607 22.1508L12.0606 22.1508C10.8951 22.7032 9.86311 22.7341 9.42365 22.7472C9.38716 22.7483 9.35476 22.7493 9.32671 22.7504L9.32597 22.7504L9.31357 22.7507C9.30154 22.7509 9.28211 22.7512 9.25582 22.7511C9.20321 22.7509 9.12331 22.7494 9.02048 22.7439C8.81454 22.7328 8.51828 22.7056 8.1662 22.641C7.46988 22.5133 6.57152 22.2422 5.72135 21.6745L4.89255 20.8457V21.0191C4.61095 20.7585 4.34979 20.476 4.11165 20.1739C3.61597 19.5414 3.28869 18.7897 3.16958 18.4797V18.4788L3.14378 18.4016C2.99974 17.9708 2.71162 16.9636 2.75424 16.0172L2.75433 16.015C2.82452 14.2876 3.40283 13.2371 3.54038 12.9999L3.54045 13L3.5449 12.992C3.94458 12.2729 4.46647 11.6289 5.08716 11.0889C5.79359 10.4975 6.61477 10.0587 7.49905 9.79997C8.24423 9.58197 9.02061 9.4959 9.79326 9.54448L9.78986 12.4001C9.62281 12.3774 9.45416 12.3661 9.28506 12.3663L21.2519 6.64867Z" stroke="black"/>
</svg>
