<svg width="35" height="35" viewBox="0 0 35 35" fill="none" xmlns="http://www.w3.org/2000/svg">
<path d="M26.2503 11.6668L32.0837 17.5002L26.2503 23.3335L24.1941 21.2772L26.4982 18.9585H18.9587V16.0418H26.4982L24.1795 13.7231L26.2503 11.6668ZM10.2087 1.47308L24.792 1.4585C26.3962 1.4585 27.7087 2.771 27.7087 4.37516V10.2085H24.792V8.75016H10.2087V26.2502H24.792V24.7918H27.7087V30.6252C27.7087 32.2293 26.3962 33.5418 24.792 33.5418H10.2087C8.60449 33.5418 7.29199 32.2293 7.29199 30.6252V4.37516C7.29199 2.771 8.60449 1.47308 10.2087 1.47308ZM10.2087 30.6252H24.792V29.1668H10.2087V30.6252ZM10.2087 5.8335H24.792V4.37516H10.2087V5.8335Z" fill="#232CC7"/>
</svg>
