<svg width="35" height="35" viewBox="0 0 35 35" fill="none" xmlns="http://www.w3.org/2000/svg">
<path d="M2.02734 26.7748L4.60859 24.2081L6.67943 26.2498L8.22526 24.7185L6.15443 22.6623L8.22526 20.5914L11.8273 24.2081L13.3732 22.6623L9.77109 19.0456L11.8273 16.9894L13.8982 19.0456L15.444 17.4998L13.3732 15.4435L15.444 13.3727L19.0461 16.9894L20.5919 15.4435L16.9898 11.8269L19.0461 9.77061L21.1023 11.8269L22.6628 10.281L20.5919 8.22477L22.6628 6.15394L26.2503 9.77061L27.8107 8.22477L24.2086 4.60811L26.7753 2.02686L32.9732 8.22477L8.22526 32.9727L2.02734 26.7748Z" fill="#232CC7"/>
</svg>
