<svg width="23" height="23" viewBox="0 0 23 23" fill="none" xmlns="http://www.w3.org/2000/svg">
<path d="M0 23L1.62442 17.0938C0.622038 15.365 0.0953278 13.4052 0.0962907 11.3955C0.0991794 5.11271 5.23629 0 11.5481 0C14.6112 0.000958333 17.4864 1.18833 19.6491 3.34267C21.8108 5.497 23.001 8.3605 23 11.4061C22.9971 17.6899 17.86 22.8026 11.5481 22.8026C9.63196 22.8016 7.7437 22.3234 6.07113 21.4149L0 23ZM6.3523 19.3516C7.96613 20.3052 9.50678 20.8763 11.5443 20.8773C16.7902 20.8773 21.0636 16.628 21.0665 11.4042C21.0684 6.16975 16.8152 1.92625 11.552 1.92433C6.30223 1.92433 2.03173 6.17358 2.02981 11.3965C2.02885 13.5288 2.65666 15.1254 3.71104 16.7957L2.7491 20.2917L6.3523 19.3516ZM17.3169 14.1153C17.2457 13.9965 17.055 13.9255 16.7681 13.7828C16.4821 13.64 15.0753 12.9509 14.8124 12.856C14.5505 12.7612 14.3598 12.7133 14.1682 12.9988C13.9776 13.2835 13.4287 13.9255 13.2621 14.1153C13.0955 14.305 12.928 14.329 12.642 14.1862C12.356 14.0434 11.4336 13.7435 10.3407 12.7727C9.49041 12.0175 8.91556 11.085 8.74897 10.7995C8.58239 10.5148 8.73164 10.3605 8.87415 10.2187C9.00318 10.0912 9.16013 9.88617 9.30361 9.71942C9.44901 9.55458 9.49619 9.43575 9.59248 9.24504C9.68781 9.05529 9.64063 8.88854 9.56841 8.74575C9.49619 8.60392 8.92422 7.20187 8.68638 6.63167C8.45336 6.07679 8.21745 6.15154 8.0422 6.14292L7.49334 6.13333C7.30269 6.13333 6.99263 6.20425 6.73072 6.48983C6.46881 6.77542 5.7293 7.4635 5.7293 8.86554C5.7293 10.2676 6.75479 11.6217 6.8973 11.8115C7.04078 12.0012 8.91459 14.8781 11.785 16.1115C12.4677 16.4048 13.0012 16.5801 13.4162 16.7114C14.1018 16.928 14.7257 16.8973 15.2187 16.8245C15.7686 16.743 16.9115 16.1355 17.1503 15.4704C17.3891 14.8043 17.3891 14.2341 17.3169 14.1153Z" fill="black"/>
</svg>
