<svg width="35" height="35" viewBox="0 0 35 35" fill="none" xmlns="http://www.w3.org/2000/svg">
<path d="M26.2503 21.8748H8.75033L2.91699 27.7082V4.37484C2.91699 3.98806 3.07064 3.61713 3.34413 3.34364C3.61762 3.07015 3.98855 2.9165 4.37533 2.9165H26.2503C26.6371 2.9165 27.008 3.07015 27.2815 3.34364C27.555 3.61713 27.7087 3.98806 27.7087 4.37484V20.4165C27.7087 20.8033 27.555 21.1742 27.2815 21.4477C27.008 21.7212 26.6371 21.8748 26.2503 21.8748ZM33.542 13.1248V33.5415L27.7087 27.7082H11.667C11.2802 27.7082 10.9093 27.5545 10.6358 27.281C10.3623 27.0075 10.2087 26.6366 10.2087 26.2498V24.7915H30.6253V11.6665H32.0837C32.4704 11.6665 32.8414 11.8201 33.1149 12.0936C33.3883 12.3671 33.542 12.7381 33.542 13.1248ZM11.9441 5.83317C10.6753 5.83317 9.65449 6.12484 8.86699 6.69359C8.10866 7.2915 7.72949 8.12275 7.74408 9.27484L7.75866 9.31859H10.5732C10.5878 8.88109 10.7191 8.54567 10.9816 8.31234C11.2516 8.0884 11.5933 7.96932 11.9441 7.97692C12.3962 7.97692 12.7753 8.12275 13.0378 8.38525C13.3003 8.66234 13.417 9.0415 13.417 9.479C13.417 9.94567 13.3149 10.3394 13.0816 10.6748C12.8774 11.0103 12.5712 11.3019 12.192 11.5353C11.4482 12.0311 10.9378 12.4686 10.6607 12.8623C10.3691 13.2415 10.2087 13.854 10.2087 14.5832H13.1253C13.1253 14.1311 13.1837 13.7665 13.3149 13.504C13.4462 13.2415 13.6941 12.979 14.0587 12.7457C14.7149 12.3957 15.2545 11.9728 15.6774 11.3894C16.1003 10.8061 16.3191 10.2082 16.3191 9.479C16.3191 8.37067 15.9253 7.48109 15.1378 6.82484C14.3649 6.16859 13.3003 5.83317 11.9441 5.83317ZM10.2087 16.0415V18.9582H13.1253V16.0415H10.2087ZM18.9587 18.9582H21.8753V16.0415H18.9587V18.9582ZM18.9587 5.83317V14.5832H21.8753V5.83317H18.9587Z" fill="#232CC7"/>
</svg>
