<svg width="24" height="22" viewBox="0 0 24 22" fill="none" xmlns="http://www.w3.org/2000/svg">
<path d="M9.75 19.9375C9.75 20.2589 9.6547 20.5731 9.47614 20.8403C9.29758 21.1075 9.04379 21.3158 8.74686 21.4388C8.44993 21.5618 8.1232 21.594 7.80798 21.5313C7.49276 21.4686 7.20321 21.3138 6.97595 21.0865C6.74869 20.8593 6.59392 20.5697 6.53122 20.2545C6.46852 19.9393 6.5007 19.6126 6.6237 19.3156C6.74669 19.0187 6.95497 18.7649 7.2222 18.5864C7.48943 18.4078 7.80361 18.3125 8.125 18.3125C8.55598 18.3125 8.9693 18.4837 9.27405 18.7885C9.57879 19.0932 9.75 19.5065 9.75 19.9375ZM18.6875 18.3125C18.3661 18.3125 18.0519 18.4078 17.7847 18.5864C17.5175 18.7649 17.3092 19.0187 17.1862 19.3156C17.0632 19.6126 17.031 19.9393 17.0937 20.2545C17.1564 20.5697 17.3112 20.8593 17.5385 21.0865C17.7657 21.3138 18.0553 21.4686 18.3705 21.5313C18.6857 21.594 19.0124 21.5618 19.3094 21.4388C19.6063 21.3158 19.8601 21.1075 20.0386 20.8403C20.2172 20.5731 20.3125 20.2589 20.3125 19.9375C20.3125 19.5065 20.1413 19.0932 19.8365 18.7885C19.5318 18.4837 19.1185 18.3125 18.6875 18.3125ZM23.2984 5.53594L20.6172 14.9203C20.47 15.429 20.1617 15.8763 19.7387 16.1949C19.3157 16.5136 18.8007 16.6864 18.2711 16.6875H8.54141C8.01181 16.6864 7.49685 16.5136 7.07383 16.1949C6.65081 15.8763 6.34255 15.429 6.19531 14.9203L3.51406 5.54609V5.52578L2.51875 2.0625H0.8125C0.597012 2.0625 0.390349 1.9769 0.237976 1.82452C0.0856024 1.67215 0 1.46549 0 1.25C0 1.03451 0.0856024 0.827849 0.237976 0.675476C0.390349 0.523102 0.597012 0.4375 0.8125 0.4375H2.51875C2.87168 0.438779 3.21472 0.554214 3.49663 0.766559C3.77853 0.978903 3.98417 1.27676 4.08281 1.61562L4.90547 4.5H22.5164C22.6423 4.49987 22.7664 4.52897 22.8791 4.58502C22.9918 4.64107 23.0899 4.72252 23.1657 4.82297C23.2416 4.92341 23.293 5.0401 23.316 5.16383C23.3391 5.28755 23.333 5.41494 23.2984 5.53594ZM21.4398 6.125H5.37266L7.75938 14.4734C7.80796 14.6433 7.91058 14.7927 8.0517 14.899C8.19282 15.0053 8.36474 15.0627 8.54141 15.0625H18.2711C18.4478 15.0627 18.6197 15.0053 18.7608 14.899C18.9019 14.7927 19.0045 14.6433 19.0531 14.4734L21.4398 6.125Z" fill="#171618"/>
</svg>
