<svg width="40" height="40" viewBox="0 0 40 40" fill="none" xmlns="http://www.w3.org/2000/svg">
<g id="XCircle">
<g id="Vector" filter="url(#filter0_dd_1102_3636)">
<path d="M19.2944 33.2353C27.0914 33.2353 33.4121 26.9146 33.4121 19.1176C33.4121 11.3207 27.0914 5 19.2944 5C11.4974 5 5.17676 11.3207 5.17676 19.1176C5.17676 26.9146 11.4974 33.2353 19.2944 33.2353Z" fill="#00B475"/>
<path d="M19.2944 33.2353C27.0914 33.2353 33.4121 26.9146 33.4121 19.1176C33.4121 11.3207 27.0914 5 19.2944 5C11.4974 5 5.17676 11.3207 5.17676 19.1176C5.17676 26.9146 11.4974 33.2353 19.2944 33.2353Z" stroke="black" stroke-opacity="0.1" stroke-linecap="round" stroke-linejoin="round"/>
</g>
<path id="Vector_2" d="M23.5292 15.0586L15.0586 23.5292" stroke="white" stroke-width="2" stroke-linecap="round" stroke-linejoin="round"/>
<path id="Vector_3" d="M15.0586 15.0586L23.5292 23.5292" stroke="white" stroke-width="2" stroke-linecap="round" stroke-linejoin="round"/>
</g>
<defs>
<filter id="filter0_dd_1102_3636" x="2.67676" y="4.5" width="33.2354" height="35.2344" filterUnits="userSpaceOnUse" color-interpolation-filters="sRGB">
<feFlood flood-opacity="0" result="BackgroundImageFix"/>
<feColorMatrix in="SourceAlpha" type="matrix" values="0 0 0 0 0 0 0 0 0 0 0 0 0 0 0 0 0 0 127 0" result="hardAlpha"/>
<feMorphology radius="2" operator="erode" in="SourceAlpha" result="effect1_dropShadow_1102_3636"/>
<feOffset dy="4"/>
<feGaussianBlur stdDeviation="2"/>
<feColorMatrix type="matrix" values="0 0 0 0 0.0941176 0 0 0 0 0.152941 0 0 0 0 0.294118 0 0 0 0.08 0"/>
<feBlend mode="normal" in2="BackgroundImageFix" result="effect1_dropShadow_1102_3636"/>
<feColorMatrix in="SourceAlpha" type="matrix" values="0 0 0 0 0 0 0 0 0 0 0 0 0 0 0 0 0 0 127 0" result="hardAlpha"/>
<feMorphology radius="2" operator="erode" in="SourceAlpha" result="effect2_dropShadow_1102_3636"/>
<feOffset dy="2"/>
<feGaussianBlur stdDeviation="2"/>
<feColorMatrix type="matrix" values="0 0 0 0 0.0941176 0 0 0 0 0.152941 0 0 0 0 0.294118 0 0 0 0.12 0"/>
<feBlend mode="normal" in2="effect1_dropShadow_1102_3636" result="effect2_dropShadow_1102_3636"/>
<feBlend mode="normal" in="SourceGraphic" in2="effect2_dropShadow_1102_3636" result="shape"/>
</filter>
</defs>
</svg>
