<svg width="22" height="23" viewBox="0 0 22 23" fill="none" xmlns="http://www.w3.org/2000/svg">
<path d="M11 2.48275C13.937 2.48275 14.2853 2.49375 15.4458 2.54692C18.4268 2.68258 19.8193 4.097 19.9549 7.056C20.0081 8.21558 20.0182 8.56392 20.0182 11.5009C20.0182 14.4388 20.0072 14.7863 19.9549 15.9458C19.8183 18.9021 18.4296 20.3193 15.4458 20.4549C14.2853 20.5081 13.9388 20.5191 11 20.5191C8.063 20.5191 7.71467 20.5081 6.55508 20.4549C3.56675 20.3183 2.18167 18.8975 2.046 15.9449C1.99283 14.7853 1.98183 14.4379 1.98183 11.5C1.98183 8.563 1.99375 8.21558 2.046 7.05508C2.18258 4.097 3.57133 2.68167 6.55508 2.546C7.71558 2.49375 8.063 2.48275 11 2.48275ZM11 0.5C8.01258 0.5 7.63858 0.512833 6.46525 0.566C2.47042 0.749333 0.25025 2.96583 0.0669167 6.96433C0.0128333 8.13858 0 8.51258 0 11.5C0 14.4874 0.0128333 14.8623 0.066 16.0357C0.249333 20.0305 2.46583 22.2507 6.46433 22.434C7.63858 22.4872 8.01258 22.5 11 22.5C13.9874 22.5 14.3623 22.4872 15.5357 22.434C19.5268 22.2507 21.7525 20.0342 21.9331 16.0357C21.9872 14.8623 22 14.4874 22 11.5C22 8.51258 21.9872 8.13858 21.934 6.96525C21.7543 2.97408 19.5351 0.75025 15.5366 0.566917C14.3623 0.512833 13.9874 0.5 11 0.5ZM11 5.8515C7.88058 5.8515 5.3515 8.38058 5.3515 11.5C5.3515 14.6194 7.88058 17.1494 11 17.1494C14.1194 17.1494 16.6485 14.6203 16.6485 11.5C16.6485 8.38058 14.1194 5.8515 11 5.8515ZM11 15.1667C8.97508 15.1667 7.33333 13.5258 7.33333 11.5C7.33333 9.47508 8.97508 7.83333 11 7.83333C13.0249 7.83333 14.6667 9.47508 14.6667 11.5C14.6667 13.5258 13.0249 15.1667 11 15.1667ZM16.8722 4.30875C16.1425 4.30875 15.5513 4.9 15.5513 5.62875C15.5513 6.3575 16.1425 6.94875 16.8722 6.94875C17.6009 6.94875 18.1912 6.3575 18.1912 5.62875C18.1912 4.9 17.6009 4.30875 16.8722 4.30875Z" fill="black"/>
</svg>
